<?xml version="1.0" encoding="utf-8" standalone="no"?>
<!DOCTYPE svg PUBLIC "-//W3C//DTD SVG 1.1//EN"
  "http://www.w3.org/Graphics/SVG/1.1/DTD/svg11.dtd">
<svg xmlns:xlink="http://www.w3.org/1999/xlink" width="853.015625pt" height="310.15625pt" viewBox="0 0 853.015625 310.15625" xmlns="http://www.w3.org/2000/svg" version="1.1">
 <title>Illustrative translation P response shapes</title>
 <metadata>
  <rdf:RDF xmlns:dc="http://purl.org/dc/elements/1.1/" xmlns:cc="http://creativecommons.org/ns#" xmlns:rdf="http://www.w3.org/1999/02/22-rdf-syntax-ns#">
   <cc:Work>
    <dc:type rdf:resource="http://purl.org/dc/dcmitype/StillImage"/>
    <dc:title>Illustrative translation P response shapes</dc:title>
    <dc:date>2026-07-10T13:35:58.280845</dc:date>
    <dc:description>Three plots compare remaining path distance over time for translation proportional gain that is too low, useful, and too high.</dc:description>
    <dc:format>image/svg+xml</dc:format>
    <dc:creator>
     <cc:Agent>
      <dc:title>Matplotlib v3.10.7, https://matplotlib.org/</dc:title>
     </cc:Agent>
    </dc:creator>
   </cc:Work>
  </rdf:RDF>
 </metadata>
 <defs>
  <style type="text/css">*{stroke-linejoin: round; stroke-linecap: butt}</style>
 </defs>
 <g id="figure_1">
  <g id="patch_1">
   <path d="M 0 310.15625
L 853.015625 310.15625
L 853.015625 0
L 0 0
z
" style="fill: #ffffff"/>
  </g>
  <g id="axes_1">
   <g id="patch_2">
    <path d="M 34.240625 272.6
L 294.098958 272.6
L 294.098958 69.02
L 34.240625 69.02
z
" style="fill: #ffffff"/>
   </g>
   <g id="patch_3">
    <path d="M 34.240625 272.6
L 294.098958 272.6
L 294.098958 269.368571
L 34.240625 269.368571
z
" clip-path="url(#pb19dd37c5c)" style="fill: #dff3e4; stroke: #dff3e4; stroke-linejoin: miter"/>
   </g>
   <g id="line2d_1">
    <path d="M 34.240625 269.368571
L 294.098958 269.368571
" clip-path="url(#pb19dd37c5c)" style="fill: none; stroke-dasharray: 5.2,3.9; stroke-dashoffset: 0; stroke: #277a3f; stroke-width: 1.3"/>
   </g>
   <g id="matplotlib.axis_1">
    <g id="xtick_1">
     <g id="line2d_2">
      <path d="M 34.240625 272.6
L 34.240625 69.02
" clip-path="url(#pb19dd37c5c)" style="fill: none; stroke: #d9dde3; stroke-opacity: 0.9; stroke-width: 0.8; stroke-linecap: square"/>
     </g>
     <g id="line2d_3">
      <defs>
       <path id="m70ab32b1f1" d="M 0 0
L 0 3.5
" style="stroke: #4b5563; stroke-width: 0.8"/>
      </defs>
      <g>
       <use xlink:href="#m70ab32b1f1" x="34.240625" y="272.6" style="fill: #4b5563; stroke: #4b5563; stroke-width: 0.8"/>
      </g>
     </g>
     <g id="text_1">
      <!-- 0 -->
      <g style="fill: #4b5563" transform="translate(31.059375 287.198437) scale(0.1 -0.1)">
       <defs>
        <path id="DejaVuSans-30" d="M 2034 4250
Q 1547 4250 1301 3770
Q 1056 3291 1056 2328
Q 1056 1369 1301 889
Q 1547 409 2034 409
Q 2525 409 2770 889
Q 3016 1369 3016 2328
Q 3016 3291 2770 3770
Q 2525 4250 2034 4250
z
M 2034 4750
Q 2819 4750 3233 4129
Q 3647 3509 3647 2328
Q 3647 1150 3233 529
Q 2819 -91 2034 -91
Q 1250 -91 836 529
Q 422 1150 422 2328
Q 422 3509 836 4129
Q 1250 4750 2034 4750
z
" transform="scale(0.015625)"/>
       </defs>
       <use xlink:href="#DejaVuSans-30"/>
      </g>
     </g>
    </g>
    <g id="xtick_2">
     <g id="line2d_4">
      <path d="M 91.986921 272.6
L 91.986921 69.02
" clip-path="url(#pb19dd37c5c)" style="fill: none; stroke: #d9dde3; stroke-opacity: 0.9; stroke-width: 0.8; stroke-linecap: square"/>
     </g>
     <g id="line2d_5">
      <g>
       <use xlink:href="#m70ab32b1f1" x="91.986921" y="272.6" style="fill: #4b5563; stroke: #4b5563; stroke-width: 0.8"/>
      </g>
     </g>
     <g id="text_2">
      <!-- 1 -->
      <g style="fill: #4b5563" transform="translate(88.805671 287.198437) scale(0.1 -0.1)">
       <defs>
        <path id="DejaVuSans-31" d="M 794 531
L 1825 531
L 1825 4091
L 703 3866
L 703 4441
L 1819 4666
L 2450 4666
L 2450 531
L 3481 531
L 3481 0
L 794 0
L 794 531
z
" transform="scale(0.015625)"/>
       </defs>
       <use xlink:href="#DejaVuSans-31"/>
      </g>
     </g>
    </g>
    <g id="xtick_3">
     <g id="line2d_6">
      <path d="M 149.733218 272.6
L 149.733218 69.02
" clip-path="url(#pb19dd37c5c)" style="fill: none; stroke: #d9dde3; stroke-opacity: 0.9; stroke-width: 0.8; stroke-linecap: square"/>
     </g>
     <g id="line2d_7">
      <g>
       <use xlink:href="#m70ab32b1f1" x="149.733218" y="272.6" style="fill: #4b5563; stroke: #4b5563; stroke-width: 0.8"/>
      </g>
     </g>
     <g id="text_3">
      <!-- 2 -->
      <g style="fill: #4b5563" transform="translate(146.551968 287.198437) scale(0.1 -0.1)">
       <defs>
        <path id="DejaVuSans-32" d="M 1228 531
L 3431 531
L 3431 0
L 469 0
L 469 531
Q 828 903 1448 1529
Q 2069 2156 2228 2338
Q 2531 2678 2651 2914
Q 2772 3150 2772 3378
Q 2772 3750 2511 3984
Q 2250 4219 1831 4219
Q 1534 4219 1204 4116
Q 875 4013 500 3803
L 500 4441
Q 881 4594 1212 4672
Q 1544 4750 1819 4750
Q 2544 4750 2975 4387
Q 3406 4025 3406 3419
Q 3406 3131 3298 2873
Q 3191 2616 2906 2266
Q 2828 2175 2409 1742
Q 1991 1309 1228 531
z
" transform="scale(0.015625)"/>
       </defs>
       <use xlink:href="#DejaVuSans-32"/>
      </g>
     </g>
    </g>
    <g id="xtick_4">
     <g id="line2d_8">
      <path d="M 207.479514 272.6
L 207.479514 69.02
" clip-path="url(#pb19dd37c5c)" style="fill: none; stroke: #d9dde3; stroke-opacity: 0.9; stroke-width: 0.8; stroke-linecap: square"/>
     </g>
     <g id="line2d_9">
      <g>
       <use xlink:href="#m70ab32b1f1" x="207.479514" y="272.6" style="fill: #4b5563; stroke: #4b5563; stroke-width: 0.8"/>
      </g>
     </g>
     <g id="text_4">
      <!-- 3 -->
      <g style="fill: #4b5563" transform="translate(204.298264 287.198437) scale(0.1 -0.1)">
       <defs>
        <path id="DejaVuSans-33" d="M 2597 2516
Q 3050 2419 3304 2112
Q 3559 1806 3559 1356
Q 3559 666 3084 287
Q 2609 -91 1734 -91
Q 1441 -91 1130 -33
Q 819 25 488 141
L 488 750
Q 750 597 1062 519
Q 1375 441 1716 441
Q 2309 441 2620 675
Q 2931 909 2931 1356
Q 2931 1769 2642 2001
Q 2353 2234 1838 2234
L 1294 2234
L 1294 2753
L 1863 2753
Q 2328 2753 2575 2939
Q 2822 3125 2822 3475
Q 2822 3834 2567 4026
Q 2313 4219 1838 4219
Q 1578 4219 1281 4162
Q 984 4106 628 3988
L 628 4550
Q 988 4650 1302 4700
Q 1616 4750 1894 4750
Q 2613 4750 3031 4423
Q 3450 4097 3450 3541
Q 3450 3153 3228 2886
Q 3006 2619 2597 2516
z
" transform="scale(0.015625)"/>
       </defs>
       <use xlink:href="#DejaVuSans-33"/>
      </g>
     </g>
    </g>
    <g id="xtick_5">
     <g id="line2d_10">
      <path d="M 265.22581 272.6
L 265.22581 69.02
" clip-path="url(#pb19dd37c5c)" style="fill: none; stroke: #d9dde3; stroke-opacity: 0.9; stroke-width: 0.8; stroke-linecap: square"/>
     </g>
     <g id="line2d_11">
      <g>
       <use xlink:href="#m70ab32b1f1" x="265.22581" y="272.6" style="fill: #4b5563; stroke: #4b5563; stroke-width: 0.8"/>
      </g>
     </g>
     <g id="text_5">
      <!-- 4 -->
      <g style="fill: #4b5563" transform="translate(262.04456 287.198437) scale(0.1 -0.1)">
       <defs>
        <path id="DejaVuSans-34" d="M 2419 4116
L 825 1625
L 2419 1625
L 2419 4116
z
M 2253 4666
L 3047 4666
L 3047 1625
L 3713 1625
L 3713 1100
L 3047 1100
L 3047 0
L 2419 0
L 2419 1100
L 313 1100
L 313 1709
L 2253 4666
z
" transform="scale(0.015625)"/>
       </defs>
       <use xlink:href="#DejaVuSans-34"/>
      </g>
     </g>
    </g>
    <g id="text_6">
     <!-- Time (s) -->
     <g style="fill: #202124" transform="translate(143.840885 300.876562) scale(0.1 -0.1)">
      <defs>
       <path id="DejaVuSans-54" d="M -19 4666
L 3928 4666
L 3928 4134
L 2272 4134
L 2272 0
L 1638 0
L 1638 4134
L -19 4134
L -19 4666
z
" transform="scale(0.015625)"/>
       <path id="DejaVuSans-69" d="M 603 3500
L 1178 3500
L 1178 0
L 603 0
L 603 3500
z
M 603 4863
L 1178 4863
L 1178 4134
L 603 4134
L 603 4863
z
" transform="scale(0.015625)"/>
       <path id="DejaVuSans-6d" d="M 3328 2828
Q 3544 3216 3844 3400
Q 4144 3584 4550 3584
Q 5097 3584 5394 3201
Q 5691 2819 5691 2113
L 5691 0
L 5113 0
L 5113 2094
Q 5113 2597 4934 2840
Q 4756 3084 4391 3084
Q 3944 3084 3684 2787
Q 3425 2491 3425 1978
L 3425 0
L 2847 0
L 2847 2094
Q 2847 2600 2669 2842
Q 2491 3084 2119 3084
Q 1678 3084 1418 2786
Q 1159 2488 1159 1978
L 1159 0
L 581 0
L 581 3500
L 1159 3500
L 1159 2956
Q 1356 3278 1631 3431
Q 1906 3584 2284 3584
Q 2666 3584 2933 3390
Q 3200 3197 3328 2828
z
" transform="scale(0.015625)"/>
       <path id="DejaVuSans-65" d="M 3597 1894
L 3597 1613
L 953 1613
Q 991 1019 1311 708
Q 1631 397 2203 397
Q 2534 397 2845 478
Q 3156 559 3463 722
L 3463 178
Q 3153 47 2828 -22
Q 2503 -91 2169 -91
Q 1331 -91 842 396
Q 353 884 353 1716
Q 353 2575 817 3079
Q 1281 3584 2069 3584
Q 2775 3584 3186 3129
Q 3597 2675 3597 1894
z
M 3022 2063
Q 3016 2534 2758 2815
Q 2500 3097 2075 3097
Q 1594 3097 1305 2825
Q 1016 2553 972 2059
L 3022 2063
z
" transform="scale(0.015625)"/>
       <path id="DejaVuSans-20" transform="scale(0.015625)"/>
       <path id="DejaVuSans-28" d="M 1984 4856
Q 1566 4138 1362 3434
Q 1159 2731 1159 2009
Q 1159 1288 1364 580
Q 1569 -128 1984 -844
L 1484 -844
Q 1016 -109 783 600
Q 550 1309 550 2009
Q 550 2706 781 3412
Q 1013 4119 1484 4856
L 1984 4856
z
" transform="scale(0.015625)"/>
       <path id="DejaVuSans-73" d="M 2834 3397
L 2834 2853
Q 2591 2978 2328 3040
Q 2066 3103 1784 3103
Q 1356 3103 1142 2972
Q 928 2841 928 2578
Q 928 2378 1081 2264
Q 1234 2150 1697 2047
L 1894 2003
Q 2506 1872 2764 1633
Q 3022 1394 3022 966
Q 3022 478 2636 193
Q 2250 -91 1575 -91
Q 1294 -91 989 -36
Q 684 19 347 128
L 347 722
Q 666 556 975 473
Q 1284 391 1588 391
Q 1994 391 2212 530
Q 2431 669 2431 922
Q 2431 1156 2273 1281
Q 2116 1406 1581 1522
L 1381 1569
Q 847 1681 609 1914
Q 372 2147 372 2553
Q 372 3047 722 3315
Q 1072 3584 1716 3584
Q 2034 3584 2315 3537
Q 2597 3491 2834 3397
z
" transform="scale(0.015625)"/>
       <path id="DejaVuSans-29" d="M 513 4856
L 1013 4856
Q 1481 4119 1714 3412
Q 1947 2706 1947 2009
Q 1947 1309 1714 600
Q 1481 -109 1013 -844
L 513 -844
Q 928 -128 1133 580
Q 1338 1288 1338 2009
Q 1338 2731 1133 3434
Q 928 4138 513 4856
z
" transform="scale(0.015625)"/>
      </defs>
      <use xlink:href="#DejaVuSans-54"/>
      <use xlink:href="#DejaVuSans-69" transform="translate(57.958984 0)"/>
      <use xlink:href="#DejaVuSans-6d" transform="translate(85.742188 0)"/>
      <use xlink:href="#DejaVuSans-65" transform="translate(183.154297 0)"/>
      <use xlink:href="#DejaVuSans-20" transform="translate(244.677734 0)"/>
      <use xlink:href="#DejaVuSans-28" transform="translate(276.464844 0)"/>
      <use xlink:href="#DejaVuSans-73" transform="translate(315.478516 0)"/>
      <use xlink:href="#DejaVuSans-29" transform="translate(367.578125 0)"/>
     </g>
    </g>
   </g>
   <g id="matplotlib.axis_2">
    <g id="ytick_1">
     <g id="line2d_12">
      <path d="M 34.240625 272.6
L 294.098958 272.6
" clip-path="url(#pb19dd37c5c)" style="fill: none; stroke: #d9dde3; stroke-opacity: 0.9; stroke-width: 0.8; stroke-linecap: square"/>
     </g>
     <g id="line2d_13">
      <defs>
       <path id="mb36da8a7a0" d="M 0 0
L -3.5 0
" style="stroke: #4b5563; stroke-width: 0.8"/>
      </defs>
      <g>
       <use xlink:href="#mb36da8a7a0" x="34.240625" y="272.6" style="fill: #4b5563; stroke: #4b5563; stroke-width: 0.8"/>
      </g>
     </g>
     <g id="text_7">
      <!-- 0 -->
      <g style="fill: #4b5563" transform="translate(20.878125 276.399219) scale(0.1 -0.1)">
       <use xlink:href="#DejaVuSans-30"/>
      </g>
     </g>
    </g>
    <g id="ytick_2">
     <g id="line2d_14">
      <path d="M 34.240625 207.971429
L 294.098958 207.971429
" clip-path="url(#pb19dd37c5c)" style="fill: none; stroke: #d9dde3; stroke-opacity: 0.9; stroke-width: 0.8; stroke-linecap: square"/>
     </g>
     <g id="line2d_15">
      <g>
       <use xlink:href="#mb36da8a7a0" x="34.240625" y="207.971429" style="fill: #4b5563; stroke: #4b5563; stroke-width: 0.8"/>
      </g>
     </g>
     <g id="text_8">
      <!-- 1 -->
      <g style="fill: #4b5563" transform="translate(20.878125 211.770647) scale(0.1 -0.1)">
       <use xlink:href="#DejaVuSans-31"/>
      </g>
     </g>
    </g>
    <g id="ytick_3">
     <g id="line2d_16">
      <path d="M 34.240625 143.342857
L 294.098958 143.342857
" clip-path="url(#pb19dd37c5c)" style="fill: none; stroke: #d9dde3; stroke-opacity: 0.9; stroke-width: 0.8; stroke-linecap: square"/>
     </g>
     <g id="line2d_17">
      <g>
       <use xlink:href="#mb36da8a7a0" x="34.240625" y="143.342857" style="fill: #4b5563; stroke: #4b5563; stroke-width: 0.8"/>
      </g>
     </g>
     <g id="text_9">
      <!-- 2 -->
      <g style="fill: #4b5563" transform="translate(20.878125 147.142076) scale(0.1 -0.1)">
       <use xlink:href="#DejaVuSans-32"/>
      </g>
     </g>
    </g>
    <g id="ytick_4">
     <g id="line2d_18">
      <path d="M 34.240625 78.714286
L 294.098958 78.714286
" clip-path="url(#pb19dd37c5c)" style="fill: none; stroke: #d9dde3; stroke-opacity: 0.9; stroke-width: 0.8; stroke-linecap: square"/>
     </g>
     <g id="line2d_19">
      <g>
       <use xlink:href="#mb36da8a7a0" x="34.240625" y="78.714286" style="fill: #4b5563; stroke: #4b5563; stroke-width: 0.8"/>
      </g>
     </g>
     <g id="text_10">
      <!-- 3 -->
      <g style="fill: #4b5563" transform="translate(20.878125 82.513504) scale(0.1 -0.1)">
       <use xlink:href="#DejaVuSans-33"/>
      </g>
     </g>
    </g>
    <g id="text_11">
     <!-- Remaining path distance (m) -->
     <g style="fill: #202124" transform="translate(14.798438 243.452969) rotate(-90) scale(0.1 -0.1)">
      <defs>
       <path id="DejaVuSans-52" d="M 2841 2188
Q 3044 2119 3236 1894
Q 3428 1669 3622 1275
L 4263 0
L 3584 0
L 2988 1197
Q 2756 1666 2539 1819
Q 2322 1972 1947 1972
L 1259 1972
L 1259 0
L 628 0
L 628 4666
L 2053 4666
Q 2853 4666 3247 4331
Q 3641 3997 3641 3322
Q 3641 2881 3436 2590
Q 3231 2300 2841 2188
z
M 1259 4147
L 1259 2491
L 2053 2491
Q 2509 2491 2742 2702
Q 2975 2913 2975 3322
Q 2975 3731 2742 3939
Q 2509 4147 2053 4147
L 1259 4147
z
" transform="scale(0.015625)"/>
       <path id="DejaVuSans-61" d="M 2194 1759
Q 1497 1759 1228 1600
Q 959 1441 959 1056
Q 959 750 1161 570
Q 1363 391 1709 391
Q 2188 391 2477 730
Q 2766 1069 2766 1631
L 2766 1759
L 2194 1759
z
M 3341 1997
L 3341 0
L 2766 0
L 2766 531
Q 2569 213 2275 61
Q 1981 -91 1556 -91
Q 1019 -91 701 211
Q 384 513 384 1019
Q 384 1609 779 1909
Q 1175 2209 1959 2209
L 2766 2209
L 2766 2266
Q 2766 2663 2505 2880
Q 2244 3097 1772 3097
Q 1472 3097 1187 3025
Q 903 2953 641 2809
L 641 3341
Q 956 3463 1253 3523
Q 1550 3584 1831 3584
Q 2591 3584 2966 3190
Q 3341 2797 3341 1997
z
" transform="scale(0.015625)"/>
       <path id="DejaVuSans-6e" d="M 3513 2113
L 3513 0
L 2938 0
L 2938 2094
Q 2938 2591 2744 2837
Q 2550 3084 2163 3084
Q 1697 3084 1428 2787
Q 1159 2491 1159 1978
L 1159 0
L 581 0
L 581 3500
L 1159 3500
L 1159 2956
Q 1366 3272 1645 3428
Q 1925 3584 2291 3584
Q 2894 3584 3203 3211
Q 3513 2838 3513 2113
z
" transform="scale(0.015625)"/>
       <path id="DejaVuSans-67" d="M 2906 1791
Q 2906 2416 2648 2759
Q 2391 3103 1925 3103
Q 1463 3103 1205 2759
Q 947 2416 947 1791
Q 947 1169 1205 825
Q 1463 481 1925 481
Q 2391 481 2648 825
Q 2906 1169 2906 1791
z
M 3481 434
Q 3481 -459 3084 -895
Q 2688 -1331 1869 -1331
Q 1566 -1331 1297 -1286
Q 1028 -1241 775 -1147
L 775 -588
Q 1028 -725 1275 -790
Q 1522 -856 1778 -856
Q 2344 -856 2625 -561
Q 2906 -266 2906 331
L 2906 616
Q 2728 306 2450 153
Q 2172 0 1784 0
Q 1141 0 747 490
Q 353 981 353 1791
Q 353 2603 747 3093
Q 1141 3584 1784 3584
Q 2172 3584 2450 3431
Q 2728 3278 2906 2969
L 2906 3500
L 3481 3500
L 3481 434
z
" transform="scale(0.015625)"/>
       <path id="DejaVuSans-70" d="M 1159 525
L 1159 -1331
L 581 -1331
L 581 3500
L 1159 3500
L 1159 2969
Q 1341 3281 1617 3432
Q 1894 3584 2278 3584
Q 2916 3584 3314 3078
Q 3713 2572 3713 1747
Q 3713 922 3314 415
Q 2916 -91 2278 -91
Q 1894 -91 1617 61
Q 1341 213 1159 525
z
M 3116 1747
Q 3116 2381 2855 2742
Q 2594 3103 2138 3103
Q 1681 3103 1420 2742
Q 1159 2381 1159 1747
Q 1159 1113 1420 752
Q 1681 391 2138 391
Q 2594 391 2855 752
Q 3116 1113 3116 1747
z
" transform="scale(0.015625)"/>
       <path id="DejaVuSans-74" d="M 1172 4494
L 1172 3500
L 2356 3500
L 2356 3053
L 1172 3053
L 1172 1153
Q 1172 725 1289 603
Q 1406 481 1766 481
L 2356 481
L 2356 0
L 1766 0
Q 1100 0 847 248
Q 594 497 594 1153
L 594 3053
L 172 3053
L 172 3500
L 594 3500
L 594 4494
L 1172 4494
z
" transform="scale(0.015625)"/>
       <path id="DejaVuSans-68" d="M 3513 2113
L 3513 0
L 2938 0
L 2938 2094
Q 2938 2591 2744 2837
Q 2550 3084 2163 3084
Q 1697 3084 1428 2787
Q 1159 2491 1159 1978
L 1159 0
L 581 0
L 581 4863
L 1159 4863
L 1159 2956
Q 1366 3272 1645 3428
Q 1925 3584 2291 3584
Q 2894 3584 3203 3211
Q 3513 2838 3513 2113
z
" transform="scale(0.015625)"/>
       <path id="DejaVuSans-64" d="M 2906 2969
L 2906 4863
L 3481 4863
L 3481 0
L 2906 0
L 2906 525
Q 2725 213 2448 61
Q 2172 -91 1784 -91
Q 1150 -91 751 415
Q 353 922 353 1747
Q 353 2572 751 3078
Q 1150 3584 1784 3584
Q 2172 3584 2448 3432
Q 2725 3281 2906 2969
z
M 947 1747
Q 947 1113 1208 752
Q 1469 391 1925 391
Q 2381 391 2643 752
Q 2906 1113 2906 1747
Q 2906 2381 2643 2742
Q 2381 3103 1925 3103
Q 1469 3103 1208 2742
Q 947 2381 947 1747
z
" transform="scale(0.015625)"/>
       <path id="DejaVuSans-63" d="M 3122 3366
L 3122 2828
Q 2878 2963 2633 3030
Q 2388 3097 2138 3097
Q 1578 3097 1268 2742
Q 959 2388 959 1747
Q 959 1106 1268 751
Q 1578 397 2138 397
Q 2388 397 2633 464
Q 2878 531 3122 666
L 3122 134
Q 2881 22 2623 -34
Q 2366 -91 2075 -91
Q 1284 -91 818 406
Q 353 903 353 1747
Q 353 2603 823 3093
Q 1294 3584 2113 3584
Q 2378 3584 2631 3529
Q 2884 3475 3122 3366
z
" transform="scale(0.015625)"/>
      </defs>
      <use xlink:href="#DejaVuSans-52"/>
      <use xlink:href="#DejaVuSans-65" transform="translate(64.982422 0)"/>
      <use xlink:href="#DejaVuSans-6d" transform="translate(126.505859 0)"/>
      <use xlink:href="#DejaVuSans-61" transform="translate(223.917969 0)"/>
      <use xlink:href="#DejaVuSans-69" transform="translate(285.197266 0)"/>
      <use xlink:href="#DejaVuSans-6e" transform="translate(312.980469 0)"/>
      <use xlink:href="#DejaVuSans-69" transform="translate(376.359375 0)"/>
      <use xlink:href="#DejaVuSans-6e" transform="translate(404.142578 0)"/>
      <use xlink:href="#DejaVuSans-67" transform="translate(467.521484 0)"/>
      <use xlink:href="#DejaVuSans-20" transform="translate(530.998047 0)"/>
      <use xlink:href="#DejaVuSans-70" transform="translate(562.785156 0)"/>
      <use xlink:href="#DejaVuSans-61" transform="translate(626.261719 0)"/>
      <use xlink:href="#DejaVuSans-74" transform="translate(687.541016 0)"/>
      <use xlink:href="#DejaVuSans-68" transform="translate(726.75 0)"/>
      <use xlink:href="#DejaVuSans-20" transform="translate(790.128906 0)"/>
      <use xlink:href="#DejaVuSans-64" transform="translate(821.916016 0)"/>
      <use xlink:href="#DejaVuSans-69" transform="translate(885.392578 0)"/>
      <use xlink:href="#DejaVuSans-73" transform="translate(913.175781 0)"/>
      <use xlink:href="#DejaVuSans-74" transform="translate(965.275391 0)"/>
      <use xlink:href="#DejaVuSans-61" transform="translate(1004.484375 0)"/>
      <use xlink:href="#DejaVuSans-6e" transform="translate(1065.763672 0)"/>
      <use xlink:href="#DejaVuSans-63" transform="translate(1129.142578 0)"/>
      <use xlink:href="#DejaVuSans-65" transform="translate(1184.123047 0)"/>
      <use xlink:href="#DejaVuSans-20" transform="translate(1245.646484 0)"/>
      <use xlink:href="#DejaVuSans-28" transform="translate(1277.433594 0)"/>
      <use xlink:href="#DejaVuSans-6d" transform="translate(1316.447266 0)"/>
      <use xlink:href="#DejaVuSans-29" transform="translate(1413.859375 0)"/>
     </g>
    </g>
   </g>
   <g id="line2d_20">
    <path d="M 34.240625 78.714286
L 115.08544 152.907886
L 119.705144 159.607355
L 124.324847 165.931837
L 128.944551 171.902323
L 133.564255 177.538625
L 138.183958 182.85945
L 143.381125 188.49023
L 148.578292 193.767706
L 153.775458 198.714047
L 158.972625 203.350029
L 164.169792 207.695125
L 169.366958 211.767588
L 175.141588 215.993562
L 180.916218 219.92596
L 186.690847 223.585179
L 192.465477 226.990194
L 198.817569 230.463147
L 205.169662 233.671652
L 211.521755 236.635846
L 218.45131 239.612697
L 225.380866 242.343146
L 232.887884 245.046688
L 240.394903 247.508661
L 248.479384 249.914573
L 256.563866 252.089792
L 265.22581 254.189471
L 274.465218 256.192759
L 284.282088 258.082966
L 294.098958 259.75541
L 294.098958 259.75541
" clip-path="url(#pb19dd37c5c)" style="fill: none; stroke: #8a5a00; stroke-width: 2.6; stroke-linecap: square"/>
   </g>
   <g id="patch_4">
    <path d="M 34.240625 272.6
L 34.240625 69.02
" style="fill: none; stroke: #9aa0a6; stroke-width: 0.8; stroke-linejoin: miter; stroke-linecap: square"/>
   </g>
   <g id="patch_5">
    <path d="M 294.098958 272.6
L 294.098958 69.02
" style="fill: none; stroke: #9aa0a6; stroke-width: 0.8; stroke-linejoin: miter; stroke-linecap: square"/>
   </g>
   <g id="patch_6">
    <path d="M 34.240625 272.6
L 294.098958 272.6
" style="fill: none; stroke: #9aa0a6; stroke-width: 0.8; stroke-linejoin: miter; stroke-linecap: square"/>
   </g>
   <g id="patch_7">
    <path d="M 34.240625 69.02
L 294.098958 69.02
" style="fill: none; stroke: #9aa0a6; stroke-width: 0.8; stroke-linejoin: miter; stroke-linecap: square"/>
   </g>
   <g id="text_12">
    <!-- Long tail; still outside tolerance -->
    <g style="fill: #3c4043" transform="translate(44.634958 92.144994) scale(0.09 -0.09)">
     <defs>
      <path id="DejaVuSans-4c" d="M 628 4666
L 1259 4666
L 1259 531
L 3531 531
L 3531 0
L 628 0
L 628 4666
z
" transform="scale(0.015625)"/>
      <path id="DejaVuSans-6f" d="M 1959 3097
Q 1497 3097 1228 2736
Q 959 2375 959 1747
Q 959 1119 1226 758
Q 1494 397 1959 397
Q 2419 397 2687 759
Q 2956 1122 2956 1747
Q 2956 2369 2687 2733
Q 2419 3097 1959 3097
z
M 1959 3584
Q 2709 3584 3137 3096
Q 3566 2609 3566 1747
Q 3566 888 3137 398
Q 2709 -91 1959 -91
Q 1206 -91 779 398
Q 353 888 353 1747
Q 353 2609 779 3096
Q 1206 3584 1959 3584
z
" transform="scale(0.015625)"/>
      <path id="DejaVuSans-6c" d="M 603 4863
L 1178 4863
L 1178 0
L 603 0
L 603 4863
z
" transform="scale(0.015625)"/>
      <path id="DejaVuSans-3b" d="M 750 3309
L 1409 3309
L 1409 2516
L 750 2516
L 750 3309
z
M 750 794
L 1409 794
L 1409 256
L 897 -744
L 494 -744
L 750 256
L 750 794
z
" transform="scale(0.015625)"/>
      <path id="DejaVuSans-75" d="M 544 1381
L 544 3500
L 1119 3500
L 1119 1403
Q 1119 906 1312 657
Q 1506 409 1894 409
Q 2359 409 2629 706
Q 2900 1003 2900 1516
L 2900 3500
L 3475 3500
L 3475 0
L 2900 0
L 2900 538
Q 2691 219 2414 64
Q 2138 -91 1772 -91
Q 1169 -91 856 284
Q 544 659 544 1381
z
M 1991 3584
L 1991 3584
z
" transform="scale(0.015625)"/>
      <path id="DejaVuSans-72" d="M 2631 2963
Q 2534 3019 2420 3045
Q 2306 3072 2169 3072
Q 1681 3072 1420 2755
Q 1159 2438 1159 1844
L 1159 0
L 581 0
L 581 3500
L 1159 3500
L 1159 2956
Q 1341 3275 1631 3429
Q 1922 3584 2338 3584
Q 2397 3584 2469 3576
Q 2541 3569 2628 3553
L 2631 2963
z
" transform="scale(0.015625)"/>
     </defs>
     <use xlink:href="#DejaVuSans-4c"/>
     <use xlink:href="#DejaVuSans-6f" transform="translate(53.962891 0)"/>
     <use xlink:href="#DejaVuSans-6e" transform="translate(115.144531 0)"/>
     <use xlink:href="#DejaVuSans-67" transform="translate(178.523438 0)"/>
     <use xlink:href="#DejaVuSans-20" transform="translate(242 0)"/>
     <use xlink:href="#DejaVuSans-74" transform="translate(273.787109 0)"/>
     <use xlink:href="#DejaVuSans-61" transform="translate(312.996094 0)"/>
     <use xlink:href="#DejaVuSans-69" transform="translate(374.275391 0)"/>
     <use xlink:href="#DejaVuSans-6c" transform="translate(402.058594 0)"/>
     <use xlink:href="#DejaVuSans-3b" transform="translate(429.841797 0)"/>
     <use xlink:href="#DejaVuSans-20" transform="translate(463.533203 0)"/>
     <use xlink:href="#DejaVuSans-73" transform="translate(495.320312 0)"/>
     <use xlink:href="#DejaVuSans-74" transform="translate(547.419922 0)"/>
     <use xlink:href="#DejaVuSans-69" transform="translate(586.628906 0)"/>
     <use xlink:href="#DejaVuSans-6c" transform="translate(614.412109 0)"/>
     <use xlink:href="#DejaVuSans-6c" transform="translate(642.195312 0)"/>
     <use xlink:href="#DejaVuSans-20" transform="translate(669.978516 0)"/>
     <use xlink:href="#DejaVuSans-6f" transform="translate(701.765625 0)"/>
     <use xlink:href="#DejaVuSans-75" transform="translate(762.947266 0)"/>
     <use xlink:href="#DejaVuSans-74" transform="translate(826.326172 0)"/>
     <use xlink:href="#DejaVuSans-73" transform="translate(865.535156 0)"/>
     <use xlink:href="#DejaVuSans-69" transform="translate(917.634766 0)"/>
     <use xlink:href="#DejaVuSans-64" transform="translate(945.417969 0)"/>
     <use xlink:href="#DejaVuSans-65" transform="translate(1008.894531 0)"/>
     <use xlink:href="#DejaVuSans-20" transform="translate(1070.417969 0)"/>
     <use xlink:href="#DejaVuSans-74" transform="translate(1102.205078 0)"/>
     <use xlink:href="#DejaVuSans-6f" transform="translate(1141.414062 0)"/>
     <use xlink:href="#DejaVuSans-6c" transform="translate(1202.595703 0)"/>
     <use xlink:href="#DejaVuSans-65" transform="translate(1230.378906 0)"/>
     <use xlink:href="#DejaVuSans-72" transform="translate(1291.902344 0)"/>
     <use xlink:href="#DejaVuSans-61" transform="translate(1333.015625 0)"/>
     <use xlink:href="#DejaVuSans-6e" transform="translate(1394.294922 0)"/>
     <use xlink:href="#DejaVuSans-63" transform="translate(1457.673828 0)"/>
     <use xlink:href="#DejaVuSans-65" transform="translate(1512.654297 0)"/>
    </g>
   </g>
   <g id="text_13">
    <!-- tolerance -->
    <g style="fill: #277a3f" transform="translate(245.895805 264.046266) scale(0.085 -0.085)">
     <use xlink:href="#DejaVuSans-74"/>
     <use xlink:href="#DejaVuSans-6f" transform="translate(39.208984 0)"/>
     <use xlink:href="#DejaVuSans-6c" transform="translate(100.390625 0)"/>
     <use xlink:href="#DejaVuSans-65" transform="translate(128.173828 0)"/>
     <use xlink:href="#DejaVuSans-72" transform="translate(189.697266 0)"/>
     <use xlink:href="#DejaVuSans-61" transform="translate(230.810547 0)"/>
     <use xlink:href="#DejaVuSans-6e" transform="translate(292.089844 0)"/>
     <use xlink:href="#DejaVuSans-63" transform="translate(355.46875 0)"/>
     <use xlink:href="#DejaVuSans-65" transform="translate(410.449219 0)"/>
    </g>
   </g>
   <g id="text_14">
    <!-- P too low -->
    <g style="fill: #202124" transform="translate(132.759792 59.02) scale(0.12 -0.12)">
     <defs>
      <path id="DejaVuSans-Bold-50" d="M 588 4666
L 2584 4666
Q 3475 4666 3951 4270
Q 4428 3875 4428 3144
Q 4428 2409 3951 2014
Q 3475 1619 2584 1619
L 1791 1619
L 1791 0
L 588 0
L 588 4666
z
M 1791 3794
L 1791 2491
L 2456 2491
Q 2806 2491 2997 2661
Q 3188 2831 3188 3144
Q 3188 3456 2997 3625
Q 2806 3794 2456 3794
L 1791 3794
z
" transform="scale(0.015625)"/>
      <path id="DejaVuSans-Bold-20" transform="scale(0.015625)"/>
      <path id="DejaVuSans-Bold-74" d="M 1759 4494
L 1759 3500
L 2913 3500
L 2913 2700
L 1759 2700
L 1759 1216
Q 1759 972 1856 886
Q 1953 800 2241 800
L 2816 800
L 2816 0
L 1856 0
Q 1194 0 917 276
Q 641 553 641 1216
L 641 2700
L 84 2700
L 84 3500
L 641 3500
L 641 4494
L 1759 4494
z
" transform="scale(0.015625)"/>
      <path id="DejaVuSans-Bold-6f" d="M 2203 2784
Q 1831 2784 1636 2517
Q 1441 2250 1441 1747
Q 1441 1244 1636 976
Q 1831 709 2203 709
Q 2569 709 2762 976
Q 2956 1244 2956 1747
Q 2956 2250 2762 2517
Q 2569 2784 2203 2784
z
M 2203 3584
Q 3106 3584 3614 3096
Q 4122 2609 4122 1747
Q 4122 884 3614 396
Q 3106 -91 2203 -91
Q 1297 -91 786 396
Q 275 884 275 1747
Q 275 2609 786 3096
Q 1297 3584 2203 3584
z
" transform="scale(0.015625)"/>
      <path id="DejaVuSans-Bold-6c" d="M 538 4863
L 1656 4863
L 1656 0
L 538 0
L 538 4863
z
" transform="scale(0.015625)"/>
      <path id="DejaVuSans-Bold-77" d="M 225 3500
L 1313 3500
L 1900 1088
L 2491 3500
L 3425 3500
L 4013 1113
L 4603 3500
L 5691 3500
L 4769 0
L 3547 0
L 2956 2406
L 2369 0
L 1147 0
L 225 3500
z
" transform="scale(0.015625)"/>
     </defs>
     <use xlink:href="#DejaVuSans-Bold-50"/>
     <use xlink:href="#DejaVuSans-Bold-20" transform="translate(73.291016 0)"/>
     <use xlink:href="#DejaVuSans-Bold-74" transform="translate(108.105469 0)"/>
     <use xlink:href="#DejaVuSans-Bold-6f" transform="translate(155.908203 0)"/>
     <use xlink:href="#DejaVuSans-Bold-6f" transform="translate(224.609375 0)"/>
     <use xlink:href="#DejaVuSans-Bold-20" transform="translate(293.310547 0)"/>
     <use xlink:href="#DejaVuSans-Bold-6c" transform="translate(328.125 0)"/>
     <use xlink:href="#DejaVuSans-Bold-6f" transform="translate(362.402344 0)"/>
     <use xlink:href="#DejaVuSans-Bold-77" transform="translate(431.103516 0)"/>
    </g>
   </g>
  </g>
  <g id="axes_2">
   <g id="patch_8">
    <path d="M 310.098958 272.6
L 569.957292 272.6
L 569.957292 69.02
L 310.098958 69.02
z
" style="fill: #ffffff"/>
   </g>
   <g id="patch_9">
    <path d="M 310.098958 272.6
L 569.957292 272.6
L 569.957292 269.368571
L 310.098958 269.368571
z
" clip-path="url(#p41af4c03c1)" style="fill: #dff3e4; stroke: #dff3e4; stroke-linejoin: miter"/>
   </g>
   <g id="line2d_21">
    <path d="M 310.098958 269.368571
L 569.957292 269.368571
" clip-path="url(#p41af4c03c1)" style="fill: none; stroke-dasharray: 5.2,3.9; stroke-dashoffset: 0; stroke: #277a3f; stroke-width: 1.3"/>
   </g>
   <g id="matplotlib.axis_3">
    <g id="xtick_6">
     <g id="line2d_22">
      <path d="M 310.098958 272.6
L 310.098958 69.02
" clip-path="url(#p41af4c03c1)" style="fill: none; stroke: #d9dde3; stroke-opacity: 0.9; stroke-width: 0.8; stroke-linecap: square"/>
     </g>
     <g id="line2d_23">
      <g>
       <use xlink:href="#m70ab32b1f1" x="310.098958" y="272.6" style="fill: #4b5563; stroke: #4b5563; stroke-width: 0.8"/>
      </g>
     </g>
     <g id="text_15">
      <!-- 0 -->
      <g style="fill: #4b5563" transform="translate(306.917708 287.198437) scale(0.1 -0.1)">
       <use xlink:href="#DejaVuSans-30"/>
      </g>
     </g>
    </g>
    <g id="xtick_7">
     <g id="line2d_24">
      <path d="M 367.845255 272.6
L 367.845255 69.02
" clip-path="url(#p41af4c03c1)" style="fill: none; stroke: #d9dde3; stroke-opacity: 0.9; stroke-width: 0.8; stroke-linecap: square"/>
     </g>
     <g id="line2d_25">
      <g>
       <use xlink:href="#m70ab32b1f1" x="367.845255" y="272.6" style="fill: #4b5563; stroke: #4b5563; stroke-width: 0.8"/>
      </g>
     </g>
     <g id="text_16">
      <!-- 1 -->
      <g style="fill: #4b5563" transform="translate(364.664005 287.198437) scale(0.1 -0.1)">
       <use xlink:href="#DejaVuSans-31"/>
      </g>
     </g>
    </g>
    <g id="xtick_8">
     <g id="line2d_26">
      <path d="M 425.591551 272.6
L 425.591551 69.02
" clip-path="url(#p41af4c03c1)" style="fill: none; stroke: #d9dde3; stroke-opacity: 0.9; stroke-width: 0.8; stroke-linecap: square"/>
     </g>
     <g id="line2d_27">
      <g>
       <use xlink:href="#m70ab32b1f1" x="425.591551" y="272.6" style="fill: #4b5563; stroke: #4b5563; stroke-width: 0.8"/>
      </g>
     </g>
     <g id="text_17">
      <!-- 2 -->
      <g style="fill: #4b5563" transform="translate(422.410301 287.198437) scale(0.1 -0.1)">
       <use xlink:href="#DejaVuSans-32"/>
      </g>
     </g>
    </g>
    <g id="xtick_9">
     <g id="line2d_28">
      <path d="M 483.337847 272.6
L 483.337847 69.02
" clip-path="url(#p41af4c03c1)" style="fill: none; stroke: #d9dde3; stroke-opacity: 0.9; stroke-width: 0.8; stroke-linecap: square"/>
     </g>
     <g id="line2d_29">
      <g>
       <use xlink:href="#m70ab32b1f1" x="483.337847" y="272.6" style="fill: #4b5563; stroke: #4b5563; stroke-width: 0.8"/>
      </g>
     </g>
     <g id="text_18">
      <!-- 3 -->
      <g style="fill: #4b5563" transform="translate(480.156597 287.198437) scale(0.1 -0.1)">
       <use xlink:href="#DejaVuSans-33"/>
      </g>
     </g>
    </g>
    <g id="xtick_10">
     <g id="line2d_30">
      <path d="M 541.084144 272.6
L 541.084144 69.02
" clip-path="url(#p41af4c03c1)" style="fill: none; stroke: #d9dde3; stroke-opacity: 0.9; stroke-width: 0.8; stroke-linecap: square"/>
     </g>
     <g id="line2d_31">
      <g>
       <use xlink:href="#m70ab32b1f1" x="541.084144" y="272.6" style="fill: #4b5563; stroke: #4b5563; stroke-width: 0.8"/>
      </g>
     </g>
     <g id="text_19">
      <!-- 4 -->
      <g style="fill: #4b5563" transform="translate(537.902894 287.198437) scale(0.1 -0.1)">
       <use xlink:href="#DejaVuSans-34"/>
      </g>
     </g>
    </g>
    <g id="text_20">
     <!-- Time (s) -->
     <g style="fill: #202124" transform="translate(419.699219 300.876562) scale(0.1 -0.1)">
      <use xlink:href="#DejaVuSans-54"/>
      <use xlink:href="#DejaVuSans-69" transform="translate(57.958984 0)"/>
      <use xlink:href="#DejaVuSans-6d" transform="translate(85.742188 0)"/>
      <use xlink:href="#DejaVuSans-65" transform="translate(183.154297 0)"/>
      <use xlink:href="#DejaVuSans-20" transform="translate(244.677734 0)"/>
      <use xlink:href="#DejaVuSans-28" transform="translate(276.464844 0)"/>
      <use xlink:href="#DejaVuSans-73" transform="translate(315.478516 0)"/>
      <use xlink:href="#DejaVuSans-29" transform="translate(367.578125 0)"/>
     </g>
    </g>
   </g>
   <g id="matplotlib.axis_4">
    <g id="ytick_5">
     <g id="line2d_32">
      <path d="M 310.098958 272.6
L 569.957292 272.6
" clip-path="url(#p41af4c03c1)" style="fill: none; stroke: #d9dde3; stroke-opacity: 0.9; stroke-width: 0.8; stroke-linecap: square"/>
     </g>
     <g id="line2d_33">
      <g>
       <use xlink:href="#mb36da8a7a0" x="310.098958" y="272.6" style="fill: #4b5563; stroke: #4b5563; stroke-width: 0.8"/>
      </g>
     </g>
    </g>
    <g id="ytick_6">
     <g id="line2d_34">
      <path d="M 310.098958 207.971429
L 569.957292 207.971429
" clip-path="url(#p41af4c03c1)" style="fill: none; stroke: #d9dde3; stroke-opacity: 0.9; stroke-width: 0.8; stroke-linecap: square"/>
     </g>
     <g id="line2d_35">
      <g>
       <use xlink:href="#mb36da8a7a0" x="310.098958" y="207.971429" style="fill: #4b5563; stroke: #4b5563; stroke-width: 0.8"/>
      </g>
     </g>
    </g>
    <g id="ytick_7">
     <g id="line2d_36">
      <path d="M 310.098958 143.342857
L 569.957292 143.342857
" clip-path="url(#p41af4c03c1)" style="fill: none; stroke: #d9dde3; stroke-opacity: 0.9; stroke-width: 0.8; stroke-linecap: square"/>
     </g>
     <g id="line2d_37">
      <g>
       <use xlink:href="#mb36da8a7a0" x="310.098958" y="143.342857" style="fill: #4b5563; stroke: #4b5563; stroke-width: 0.8"/>
      </g>
     </g>
    </g>
    <g id="ytick_8">
     <g id="line2d_38">
      <path d="M 310.098958 78.714286
L 569.957292 78.714286
" clip-path="url(#p41af4c03c1)" style="fill: none; stroke: #d9dde3; stroke-opacity: 0.9; stroke-width: 0.8; stroke-linecap: square"/>
     </g>
     <g id="line2d_39">
      <g>
       <use xlink:href="#mb36da8a7a0" x="310.098958" y="78.714286" style="fill: #4b5563; stroke: #4b5563; stroke-width: 0.8"/>
      </g>
     </g>
    </g>
   </g>
   <g id="line2d_40">
    <path d="M 310.098958 78.714286
L 414.042292 235.761714
L 416.352144 240.057801
L 418.661995 243.852877
L 420.971847 247.205371
L 423.281699 250.166897
L 425.591551 252.783049
L 427.901403 255.094105
L 430.211255 257.135645
L 433.098569 259.356092
L 435.985884 261.257716
L 438.873199 262.886296
L 441.760514 264.281036
L 445.225292 265.692984
L 448.690069 266.865287
L 452.73231 267.983958
L 457.352014 268.997826
L 462.549181 269.874811
L 468.32381 270.601219
L 475.253366 271.222132
L 483.337847 271.707262
L 493.154718 272.072951
L 500.084273 272.082971
L 569.957292 272.082971
L 569.957292 272.082971
" clip-path="url(#p41af4c03c1)" style="fill: none; stroke: #1769aa; stroke-width: 2.6; stroke-linecap: square"/>
   </g>
   <g id="patch_10">
    <path d="M 310.098958 272.6
L 310.098958 69.02
" style="fill: none; stroke: #9aa0a6; stroke-width: 0.8; stroke-linejoin: miter; stroke-linecap: square"/>
   </g>
   <g id="patch_11">
    <path d="M 569.957292 272.6
L 569.957292 69.02
" style="fill: none; stroke: #9aa0a6; stroke-width: 0.8; stroke-linejoin: miter; stroke-linecap: square"/>
   </g>
   <g id="patch_12">
    <path d="M 310.098958 272.6
L 569.957292 272.6
" style="fill: none; stroke: #9aa0a6; stroke-width: 0.8; stroke-linejoin: miter; stroke-linecap: square"/>
   </g>
   <g id="patch_13">
    <path d="M 310.098958 69.02
L 569.957292 69.02
" style="fill: none; stroke: #9aa0a6; stroke-width: 0.8; stroke-linejoin: miter; stroke-linecap: square"/>
   </g>
   <g id="text_21">
    <!-- One clean arrival -->
    <g style="fill: #3c4043" transform="translate(320.493292 92.144994) scale(0.09 -0.09)">
     <defs>
      <path id="DejaVuSans-4f" d="M 2522 4238
Q 1834 4238 1429 3725
Q 1025 3213 1025 2328
Q 1025 1447 1429 934
Q 1834 422 2522 422
Q 3209 422 3611 934
Q 4013 1447 4013 2328
Q 4013 3213 3611 3725
Q 3209 4238 2522 4238
z
M 2522 4750
Q 3503 4750 4090 4092
Q 4678 3434 4678 2328
Q 4678 1225 4090 567
Q 3503 -91 2522 -91
Q 1538 -91 948 565
Q 359 1222 359 2328
Q 359 3434 948 4092
Q 1538 4750 2522 4750
z
" transform="scale(0.015625)"/>
      <path id="DejaVuSans-76" d="M 191 3500
L 800 3500
L 1894 563
L 2988 3500
L 3597 3500
L 2284 0
L 1503 0
L 191 3500
z
" transform="scale(0.015625)"/>
     </defs>
     <use xlink:href="#DejaVuSans-4f"/>
     <use xlink:href="#DejaVuSans-6e" transform="translate(78.710938 0)"/>
     <use xlink:href="#DejaVuSans-65" transform="translate(142.089844 0)"/>
     <use xlink:href="#DejaVuSans-20" transform="translate(203.613281 0)"/>
     <use xlink:href="#DejaVuSans-63" transform="translate(235.400391 0)"/>
     <use xlink:href="#DejaVuSans-6c" transform="translate(290.380859 0)"/>
     <use xlink:href="#DejaVuSans-65" transform="translate(318.164062 0)"/>
     <use xlink:href="#DejaVuSans-61" transform="translate(379.6875 0)"/>
     <use xlink:href="#DejaVuSans-6e" transform="translate(440.966797 0)"/>
     <use xlink:href="#DejaVuSans-20" transform="translate(504.345703 0)"/>
     <use xlink:href="#DejaVuSans-61" transform="translate(536.132812 0)"/>
     <use xlink:href="#DejaVuSans-72" transform="translate(597.412109 0)"/>
     <use xlink:href="#DejaVuSans-72" transform="translate(636.775391 0)"/>
     <use xlink:href="#DejaVuSans-69" transform="translate(677.888672 0)"/>
     <use xlink:href="#DejaVuSans-76" transform="translate(705.671875 0)"/>
     <use xlink:href="#DejaVuSans-61" transform="translate(764.851562 0)"/>
     <use xlink:href="#DejaVuSans-6c" transform="translate(826.130859 0)"/>
    </g>
   </g>
   <g id="text_22">
    <!-- tolerance -->
    <g style="fill: #277a3f" transform="translate(521.754138 264.046266) scale(0.085 -0.085)">
     <use xlink:href="#DejaVuSans-74"/>
     <use xlink:href="#DejaVuSans-6f" transform="translate(39.208984 0)"/>
     <use xlink:href="#DejaVuSans-6c" transform="translate(100.390625 0)"/>
     <use xlink:href="#DejaVuSans-65" transform="translate(128.173828 0)"/>
     <use xlink:href="#DejaVuSans-72" transform="translate(189.697266 0)"/>
     <use xlink:href="#DejaVuSans-61" transform="translate(230.810547 0)"/>
     <use xlink:href="#DejaVuSans-6e" transform="translate(292.089844 0)"/>
     <use xlink:href="#DejaVuSans-63" transform="translate(355.46875 0)"/>
     <use xlink:href="#DejaVuSans-65" transform="translate(410.449219 0)"/>
    </g>
   </g>
   <g id="text_23">
    <!-- Useful P range -->
    <g style="fill: #202124" transform="translate(390.358438 59.02) scale(0.12 -0.12)">
     <defs>
      <path id="DejaVuSans-Bold-55" d="M 588 4666
L 1791 4666
L 1791 1869
Q 1791 1291 1980 1042
Q 2169 794 2597 794
Q 3028 794 3217 1042
Q 3406 1291 3406 1869
L 3406 4666
L 4609 4666
L 4609 1869
Q 4609 878 4112 393
Q 3616 -91 2597 -91
Q 1581 -91 1084 393
Q 588 878 588 1869
L 588 4666
z
" transform="scale(0.015625)"/>
      <path id="DejaVuSans-Bold-73" d="M 3272 3391
L 3272 2541
Q 2913 2691 2578 2766
Q 2244 2841 1947 2841
Q 1628 2841 1473 2761
Q 1319 2681 1319 2516
Q 1319 2381 1436 2309
Q 1553 2238 1856 2203
L 2053 2175
Q 2913 2066 3209 1816
Q 3506 1566 3506 1031
Q 3506 472 3093 190
Q 2681 -91 1863 -91
Q 1516 -91 1145 -36
Q 775 19 384 128
L 384 978
Q 719 816 1070 734
Q 1422 653 1784 653
Q 2113 653 2278 743
Q 2444 834 2444 1013
Q 2444 1163 2330 1236
Q 2216 1309 1875 1350
L 1678 1375
Q 931 1469 631 1722
Q 331 1975 331 2491
Q 331 3047 712 3315
Q 1094 3584 1881 3584
Q 2191 3584 2531 3537
Q 2872 3491 3272 3391
z
" transform="scale(0.015625)"/>
      <path id="DejaVuSans-Bold-65" d="M 4031 1759
L 4031 1441
L 1416 1441
Q 1456 1047 1700 850
Q 1944 653 2381 653
Q 2734 653 3104 758
Q 3475 863 3866 1075
L 3866 213
Q 3469 63 3072 -14
Q 2675 -91 2278 -91
Q 1328 -91 801 392
Q 275 875 275 1747
Q 275 2603 792 3093
Q 1309 3584 2216 3584
Q 3041 3584 3536 3087
Q 4031 2591 4031 1759
z
M 2881 2131
Q 2881 2450 2695 2645
Q 2509 2841 2209 2841
Q 1884 2841 1681 2658
Q 1478 2475 1428 2131
L 2881 2131
z
" transform="scale(0.015625)"/>
      <path id="DejaVuSans-Bold-66" d="M 2841 4863
L 2841 4128
L 2222 4128
Q 1984 4128 1890 4042
Q 1797 3956 1797 3744
L 1797 3500
L 2753 3500
L 2753 2700
L 1797 2700
L 1797 0
L 678 0
L 678 2700
L 122 2700
L 122 3500
L 678 3500
L 678 3744
Q 678 4316 997 4589
Q 1316 4863 1984 4863
L 2841 4863
z
" transform="scale(0.015625)"/>
      <path id="DejaVuSans-Bold-75" d="M 500 1363
L 500 3500
L 1625 3500
L 1625 3150
Q 1625 2866 1622 2436
Q 1619 2006 1619 1863
Q 1619 1441 1641 1255
Q 1663 1069 1716 984
Q 1784 875 1895 815
Q 2006 756 2150 756
Q 2500 756 2700 1025
Q 2900 1294 2900 1772
L 2900 3500
L 4019 3500
L 4019 0
L 2900 0
L 2900 506
Q 2647 200 2364 54
Q 2081 -91 1741 -91
Q 1134 -91 817 281
Q 500 653 500 1363
z
" transform="scale(0.015625)"/>
      <path id="DejaVuSans-Bold-72" d="M 3138 2547
Q 2991 2616 2845 2648
Q 2700 2681 2553 2681
Q 2122 2681 1889 2404
Q 1656 2128 1656 1613
L 1656 0
L 538 0
L 538 3500
L 1656 3500
L 1656 2925
Q 1872 3269 2151 3426
Q 2431 3584 2822 3584
Q 2878 3584 2943 3579
Q 3009 3575 3134 3559
L 3138 2547
z
" transform="scale(0.015625)"/>
      <path id="DejaVuSans-Bold-61" d="M 2106 1575
Q 1756 1575 1579 1456
Q 1403 1338 1403 1106
Q 1403 894 1545 773
Q 1688 653 1941 653
Q 2256 653 2472 879
Q 2688 1106 2688 1447
L 2688 1575
L 2106 1575
z
M 3816 1997
L 3816 0
L 2688 0
L 2688 519
Q 2463 200 2181 54
Q 1900 -91 1497 -91
Q 953 -91 614 226
Q 275 544 275 1050
Q 275 1666 698 1953
Q 1122 2241 2028 2241
L 2688 2241
L 2688 2328
Q 2688 2594 2478 2717
Q 2269 2841 1825 2841
Q 1466 2841 1156 2769
Q 847 2697 581 2553
L 581 3406
Q 941 3494 1303 3539
Q 1666 3584 2028 3584
Q 2975 3584 3395 3211
Q 3816 2838 3816 1997
z
" transform="scale(0.015625)"/>
      <path id="DejaVuSans-Bold-6e" d="M 4056 2131
L 4056 0
L 2931 0
L 2931 347
L 2931 1631
Q 2931 2084 2911 2256
Q 2891 2428 2841 2509
Q 2775 2619 2662 2680
Q 2550 2741 2406 2741
Q 2056 2741 1856 2470
Q 1656 2200 1656 1722
L 1656 0
L 538 0
L 538 3500
L 1656 3500
L 1656 2988
Q 1909 3294 2193 3439
Q 2478 3584 2822 3584
Q 3428 3584 3742 3212
Q 4056 2841 4056 2131
z
" transform="scale(0.015625)"/>
      <path id="DejaVuSans-Bold-67" d="M 2919 594
Q 2688 288 2409 144
Q 2131 0 1766 0
Q 1125 0 706 504
Q 288 1009 288 1791
Q 288 2575 706 3076
Q 1125 3578 1766 3578
Q 2131 3578 2409 3434
Q 2688 3291 2919 2981
L 2919 3500
L 4044 3500
L 4044 353
Q 4044 -491 3511 -936
Q 2978 -1381 1966 -1381
Q 1638 -1381 1331 -1331
Q 1025 -1281 716 -1178
L 716 -306
Q 1009 -475 1290 -558
Q 1572 -641 1856 -641
Q 2406 -641 2662 -400
Q 2919 -159 2919 353
L 2919 594
z
M 2181 2772
Q 1834 2772 1640 2515
Q 1447 2259 1447 1791
Q 1447 1309 1634 1061
Q 1822 813 2181 813
Q 2531 813 2725 1069
Q 2919 1325 2919 1791
Q 2919 2259 2725 2515
Q 2531 2772 2181 2772
z
" transform="scale(0.015625)"/>
     </defs>
     <use xlink:href="#DejaVuSans-Bold-55"/>
     <use xlink:href="#DejaVuSans-Bold-73" transform="translate(81.201172 0)"/>
     <use xlink:href="#DejaVuSans-Bold-65" transform="translate(140.722656 0)"/>
     <use xlink:href="#DejaVuSans-Bold-66" transform="translate(208.544922 0)"/>
     <use xlink:href="#DejaVuSans-Bold-75" transform="translate(252.050781 0)"/>
     <use xlink:href="#DejaVuSans-Bold-6c" transform="translate(323.242188 0)"/>
     <use xlink:href="#DejaVuSans-Bold-20" transform="translate(357.519531 0)"/>
     <use xlink:href="#DejaVuSans-Bold-50" transform="translate(392.333984 0)"/>
     <use xlink:href="#DejaVuSans-Bold-20" transform="translate(465.625 0)"/>
     <use xlink:href="#DejaVuSans-Bold-72" transform="translate(500.439453 0)"/>
     <use xlink:href="#DejaVuSans-Bold-61" transform="translate(549.755859 0)"/>
     <use xlink:href="#DejaVuSans-Bold-6e" transform="translate(617.236328 0)"/>
     <use xlink:href="#DejaVuSans-Bold-67" transform="translate(688.427734 0)"/>
     <use xlink:href="#DejaVuSans-Bold-65" transform="translate(760.009766 0)"/>
    </g>
   </g>
  </g>
  <g id="axes_3">
   <g id="patch_14">
    <path d="M 585.957292 272.6
L 845.815625 272.6
L 845.815625 69.02
L 585.957292 69.02
z
" style="fill: #ffffff"/>
   </g>
   <g id="patch_15">
    <path d="M 585.957292 272.6
L 845.815625 272.6
L 845.815625 269.368571
L 585.957292 269.368571
z
" clip-path="url(#p0a1e00ad3f)" style="fill: #dff3e4; stroke: #dff3e4; stroke-linejoin: miter"/>
   </g>
   <g id="line2d_41">
    <path d="M 585.957292 269.368571
L 845.815625 269.368571
" clip-path="url(#p0a1e00ad3f)" style="fill: none; stroke-dasharray: 5.2,3.9; stroke-dashoffset: 0; stroke: #277a3f; stroke-width: 1.3"/>
   </g>
   <g id="matplotlib.axis_5">
    <g id="xtick_11">
     <g id="line2d_42">
      <path d="M 585.957292 272.6
L 585.957292 69.02
" clip-path="url(#p0a1e00ad3f)" style="fill: none; stroke: #d9dde3; stroke-opacity: 0.9; stroke-width: 0.8; stroke-linecap: square"/>
     </g>
     <g id="line2d_43">
      <g>
       <use xlink:href="#m70ab32b1f1" x="585.957292" y="272.6" style="fill: #4b5563; stroke: #4b5563; stroke-width: 0.8"/>
      </g>
     </g>
     <g id="text_24">
      <!-- 0 -->
      <g style="fill: #4b5563" transform="translate(582.776042 287.198437) scale(0.1 -0.1)">
       <use xlink:href="#DejaVuSans-30"/>
      </g>
     </g>
    </g>
    <g id="xtick_12">
     <g id="line2d_44">
      <path d="M 643.703588 272.6
L 643.703588 69.02
" clip-path="url(#p0a1e00ad3f)" style="fill: none; stroke: #d9dde3; stroke-opacity: 0.9; stroke-width: 0.8; stroke-linecap: square"/>
     </g>
     <g id="line2d_45">
      <g>
       <use xlink:href="#m70ab32b1f1" x="643.703588" y="272.6" style="fill: #4b5563; stroke: #4b5563; stroke-width: 0.8"/>
      </g>
     </g>
     <g id="text_25">
      <!-- 1 -->
      <g style="fill: #4b5563" transform="translate(640.522338 287.198437) scale(0.1 -0.1)">
       <use xlink:href="#DejaVuSans-31"/>
      </g>
     </g>
    </g>
    <g id="xtick_13">
     <g id="line2d_46">
      <path d="M 701.449884 272.6
L 701.449884 69.02
" clip-path="url(#p0a1e00ad3f)" style="fill: none; stroke: #d9dde3; stroke-opacity: 0.9; stroke-width: 0.8; stroke-linecap: square"/>
     </g>
     <g id="line2d_47">
      <g>
       <use xlink:href="#m70ab32b1f1" x="701.449884" y="272.6" style="fill: #4b5563; stroke: #4b5563; stroke-width: 0.8"/>
      </g>
     </g>
     <g id="text_26">
      <!-- 2 -->
      <g style="fill: #4b5563" transform="translate(698.268634 287.198437) scale(0.1 -0.1)">
       <use xlink:href="#DejaVuSans-32"/>
      </g>
     </g>
    </g>
    <g id="xtick_14">
     <g id="line2d_48">
      <path d="M 759.196181 272.6
L 759.196181 69.02
" clip-path="url(#p0a1e00ad3f)" style="fill: none; stroke: #d9dde3; stroke-opacity: 0.9; stroke-width: 0.8; stroke-linecap: square"/>
     </g>
     <g id="line2d_49">
      <g>
       <use xlink:href="#m70ab32b1f1" x="759.196181" y="272.6" style="fill: #4b5563; stroke: #4b5563; stroke-width: 0.8"/>
      </g>
     </g>
     <g id="text_27">
      <!-- 3 -->
      <g style="fill: #4b5563" transform="translate(756.014931 287.198437) scale(0.1 -0.1)">
       <use xlink:href="#DejaVuSans-33"/>
      </g>
     </g>
    </g>
    <g id="xtick_15">
     <g id="line2d_50">
      <path d="M 816.942477 272.6
L 816.942477 69.02
" clip-path="url(#p0a1e00ad3f)" style="fill: none; stroke: #d9dde3; stroke-opacity: 0.9; stroke-width: 0.8; stroke-linecap: square"/>
     </g>
     <g id="line2d_51">
      <g>
       <use xlink:href="#m70ab32b1f1" x="816.942477" y="272.6" style="fill: #4b5563; stroke: #4b5563; stroke-width: 0.8"/>
      </g>
     </g>
     <g id="text_28">
      <!-- 4 -->
      <g style="fill: #4b5563" transform="translate(813.761227 287.198437) scale(0.1 -0.1)">
       <use xlink:href="#DejaVuSans-34"/>
      </g>
     </g>
    </g>
    <g id="text_29">
     <!-- Time (s) -->
     <g style="fill: #202124" transform="translate(695.557552 300.876562) scale(0.1 -0.1)">
      <use xlink:href="#DejaVuSans-54"/>
      <use xlink:href="#DejaVuSans-69" transform="translate(57.958984 0)"/>
      <use xlink:href="#DejaVuSans-6d" transform="translate(85.742188 0)"/>
      <use xlink:href="#DejaVuSans-65" transform="translate(183.154297 0)"/>
      <use xlink:href="#DejaVuSans-20" transform="translate(244.677734 0)"/>
      <use xlink:href="#DejaVuSans-28" transform="translate(276.464844 0)"/>
      <use xlink:href="#DejaVuSans-73" transform="translate(315.478516 0)"/>
      <use xlink:href="#DejaVuSans-29" transform="translate(367.578125 0)"/>
     </g>
    </g>
   </g>
   <g id="matplotlib.axis_6">
    <g id="ytick_9">
     <g id="line2d_52">
      <path d="M 585.957292 272.6
L 845.815625 272.6
" clip-path="url(#p0a1e00ad3f)" style="fill: none; stroke: #d9dde3; stroke-opacity: 0.9; stroke-width: 0.8; stroke-linecap: square"/>
     </g>
     <g id="line2d_53">
      <g>
       <use xlink:href="#mb36da8a7a0" x="585.957292" y="272.6" style="fill: #4b5563; stroke: #4b5563; stroke-width: 0.8"/>
      </g>
     </g>
    </g>
    <g id="ytick_10">
     <g id="line2d_54">
      <path d="M 585.957292 207.971429
L 845.815625 207.971429
" clip-path="url(#p0a1e00ad3f)" style="fill: none; stroke: #d9dde3; stroke-opacity: 0.9; stroke-width: 0.8; stroke-linecap: square"/>
     </g>
     <g id="line2d_55">
      <g>
       <use xlink:href="#mb36da8a7a0" x="585.957292" y="207.971429" style="fill: #4b5563; stroke: #4b5563; stroke-width: 0.8"/>
      </g>
     </g>
    </g>
    <g id="ytick_11">
     <g id="line2d_56">
      <path d="M 585.957292 143.342857
L 845.815625 143.342857
" clip-path="url(#p0a1e00ad3f)" style="fill: none; stroke: #d9dde3; stroke-opacity: 0.9; stroke-width: 0.8; stroke-linecap: square"/>
     </g>
     <g id="line2d_57">
      <g>
       <use xlink:href="#mb36da8a7a0" x="585.957292" y="143.342857" style="fill: #4b5563; stroke: #4b5563; stroke-width: 0.8"/>
      </g>
     </g>
    </g>
    <g id="ytick_12">
     <g id="line2d_58">
      <path d="M 585.957292 78.714286
L 845.815625 78.714286
" clip-path="url(#p0a1e00ad3f)" style="fill: none; stroke: #d9dde3; stroke-opacity: 0.9; stroke-width: 0.8; stroke-linecap: square"/>
     </g>
     <g id="line2d_59">
      <g>
       <use xlink:href="#mb36da8a7a0" x="585.957292" y="78.714286" style="fill: #4b5563; stroke: #4b5563; stroke-width: 0.8"/>
      </g>
     </g>
    </g>
   </g>
   <g id="line2d_60">
    <path d="M 585.957292 78.714286
L 689.900625 235.761714
L 690.478088 235.336398
L 691.633014 236.317807
L 692.78794 237.654396
L 693.942866 239.320141
L 695.675255 242.372341
L 697.407644 245.99331
L 699.717495 251.505976
L 702.60481 259.092137
L 707.224514 271.513479
L 707.801977 270.647624
L 710.111829 265.005674
L 712.421681 260.013518
L 714.154069 256.801118
L 715.886458 254.107815
L 717.041384 252.621301
L 718.19631 251.391974
L 719.351236 250.424928
L 720.506162 249.722235
L 721.661088 249.283023
L 722.816014 249.103573
L 723.97094 249.177459
L 725.125866 249.495702
L 726.280792 250.046949
L 727.435718 250.817676
L 728.590644 251.792404
L 730.323032 253.598954
L 732.055421 255.761417
L 734.365273 259.077474
L 737.252588 263.672099
L 741.872292 271.254147
L 742.449755 271.481925
L 745.337069 267.197417
L 747.646921 264.222893
L 749.37931 262.324773
L 751.111699 260.748499
L 752.844088 259.516903
L 754.576477 258.643349
L 755.731403 258.262255
L 756.886329 258.041219
L 758.041255 257.977485
L 759.196181 258.066671
L 760.928569 258.473867
L 762.660958 259.18576
L 764.393347 260.170432
L 766.125736 261.390871
L 768.435588 263.313658
L 771.322903 266.044569
L 777.097532 271.803294
L 782.294699 267.367144
L 784.604551 265.832955
L 786.33694 264.912519
L 788.069329 264.204143
L 789.801718 263.714851
L 791.534106 263.446006
L 793.266495 263.393557
L 794.998884 263.548387
L 796.731273 263.896784
L 799.041125 264.631227
L 801.350977 265.626609
L 804.238292 267.147193
L 808.857995 269.921102
L 811.74531 271.670542
L 812.322773 271.640391
L 815.787551 269.765933
L 818.674866 268.481028
L 820.984718 267.68291
L 823.294569 267.112556
L 825.604421 266.779889
L 827.914273 266.684042
L 830.224125 266.814078
L 832.533977 267.150093
L 835.421292 267.817372
L 838.886069 268.892065
L 844.660699 271.006901
L 845.815625 271.43397
L 845.815625 271.43397
" clip-path="url(#p0a1e00ad3f)" style="fill: none; stroke: #b3261e; stroke-width: 2.6; stroke-linecap: square"/>
   </g>
   <g id="patch_16">
    <path d="M 585.957292 272.6
L 585.957292 69.02
" style="fill: none; stroke: #9aa0a6; stroke-width: 0.8; stroke-linejoin: miter; stroke-linecap: square"/>
   </g>
   <g id="patch_17">
    <path d="M 845.815625 272.6
L 845.815625 69.02
" style="fill: none; stroke: #9aa0a6; stroke-width: 0.8; stroke-linejoin: miter; stroke-linecap: square"/>
   </g>
   <g id="patch_18">
    <path d="M 585.957292 272.6
L 845.815625 272.6
" style="fill: none; stroke: #9aa0a6; stroke-width: 0.8; stroke-linejoin: miter; stroke-linecap: square"/>
   </g>
   <g id="patch_19">
    <path d="M 585.957292 69.02
L 845.815625 69.02
" style="fill: none; stroke: #9aa0a6; stroke-width: 0.8; stroke-linejoin: miter; stroke-linecap: square"/>
   </g>
   <g id="text_30">
    <!-- Repeated rebound near the endpoint -->
    <g style="fill: #3c4043" transform="translate(596.351625 92.144994) scale(0.09 -0.09)">
     <defs>
      <path id="DejaVuSans-62" d="M 3116 1747
Q 3116 2381 2855 2742
Q 2594 3103 2138 3103
Q 1681 3103 1420 2742
Q 1159 2381 1159 1747
Q 1159 1113 1420 752
Q 1681 391 2138 391
Q 2594 391 2855 752
Q 3116 1113 3116 1747
z
M 1159 2969
Q 1341 3281 1617 3432
Q 1894 3584 2278 3584
Q 2916 3584 3314 3078
Q 3713 2572 3713 1747
Q 3713 922 3314 415
Q 2916 -91 2278 -91
Q 1894 -91 1617 61
Q 1341 213 1159 525
L 1159 0
L 581 0
L 581 4863
L 1159 4863
L 1159 2969
z
" transform="scale(0.015625)"/>
     </defs>
     <use xlink:href="#DejaVuSans-52"/>
     <use xlink:href="#DejaVuSans-65" transform="translate(64.982422 0)"/>
     <use xlink:href="#DejaVuSans-70" transform="translate(126.505859 0)"/>
     <use xlink:href="#DejaVuSans-65" transform="translate(189.982422 0)"/>
     <use xlink:href="#DejaVuSans-61" transform="translate(251.505859 0)"/>
     <use xlink:href="#DejaVuSans-74" transform="translate(312.785156 0)"/>
     <use xlink:href="#DejaVuSans-65" transform="translate(351.994141 0)"/>
     <use xlink:href="#DejaVuSans-64" transform="translate(413.517578 0)"/>
     <use xlink:href="#DejaVuSans-20" transform="translate(476.994141 0)"/>
     <use xlink:href="#DejaVuSans-72" transform="translate(508.78125 0)"/>
     <use xlink:href="#DejaVuSans-65" transform="translate(547.644531 0)"/>
     <use xlink:href="#DejaVuSans-62" transform="translate(609.167969 0)"/>
     <use xlink:href="#DejaVuSans-6f" transform="translate(672.644531 0)"/>
     <use xlink:href="#DejaVuSans-75" transform="translate(733.826172 0)"/>
     <use xlink:href="#DejaVuSans-6e" transform="translate(797.205078 0)"/>
     <use xlink:href="#DejaVuSans-64" transform="translate(860.583984 0)"/>
     <use xlink:href="#DejaVuSans-20" transform="translate(924.060547 0)"/>
     <use xlink:href="#DejaVuSans-6e" transform="translate(955.847656 0)"/>
     <use xlink:href="#DejaVuSans-65" transform="translate(1019.226562 0)"/>
     <use xlink:href="#DejaVuSans-61" transform="translate(1080.75 0)"/>
     <use xlink:href="#DejaVuSans-72" transform="translate(1142.029297 0)"/>
     <use xlink:href="#DejaVuSans-20" transform="translate(1183.142578 0)"/>
     <use xlink:href="#DejaVuSans-74" transform="translate(1214.929688 0)"/>
     <use xlink:href="#DejaVuSans-68" transform="translate(1254.138672 0)"/>
     <use xlink:href="#DejaVuSans-65" transform="translate(1317.517578 0)"/>
     <use xlink:href="#DejaVuSans-20" transform="translate(1379.041016 0)"/>
     <use xlink:href="#DejaVuSans-65" transform="translate(1410.828125 0)"/>
     <use xlink:href="#DejaVuSans-6e" transform="translate(1472.351562 0)"/>
     <use xlink:href="#DejaVuSans-64" transform="translate(1535.730469 0)"/>
     <use xlink:href="#DejaVuSans-70" transform="translate(1599.207031 0)"/>
     <use xlink:href="#DejaVuSans-6f" transform="translate(1662.683594 0)"/>
     <use xlink:href="#DejaVuSans-69" transform="translate(1723.865234 0)"/>
     <use xlink:href="#DejaVuSans-6e" transform="translate(1751.648438 0)"/>
     <use xlink:href="#DejaVuSans-74" transform="translate(1815.027344 0)"/>
    </g>
   </g>
   <g id="text_31">
    <!-- tolerance -->
    <g style="fill: #277a3f" transform="translate(797.612472 264.046266) scale(0.085 -0.085)">
     <use xlink:href="#DejaVuSans-74"/>
     <use xlink:href="#DejaVuSans-6f" transform="translate(39.208984 0)"/>
     <use xlink:href="#DejaVuSans-6c" transform="translate(100.390625 0)"/>
     <use xlink:href="#DejaVuSans-65" transform="translate(128.173828 0)"/>
     <use xlink:href="#DejaVuSans-72" transform="translate(189.697266 0)"/>
     <use xlink:href="#DejaVuSans-61" transform="translate(230.810547 0)"/>
     <use xlink:href="#DejaVuSans-6e" transform="translate(292.089844 0)"/>
     <use xlink:href="#DejaVuSans-63" transform="translate(355.46875 0)"/>
     <use xlink:href="#DejaVuSans-65" transform="translate(410.449219 0)"/>
    </g>
   </g>
   <g id="text_32">
    <!-- P too high -->
    <g style="fill: #202124" transform="translate(681.304896 59.02) scale(0.12 -0.12)">
     <defs>
      <path id="DejaVuSans-Bold-68" d="M 4056 2131
L 4056 0
L 2931 0
L 2931 347
L 2931 1625
Q 2931 2084 2911 2256
Q 2891 2428 2841 2509
Q 2775 2619 2662 2680
Q 2550 2741 2406 2741
Q 2056 2741 1856 2470
Q 1656 2200 1656 1722
L 1656 0
L 538 0
L 538 4863
L 1656 4863
L 1656 2988
Q 1909 3294 2193 3439
Q 2478 3584 2822 3584
Q 3428 3584 3742 3212
Q 4056 2841 4056 2131
z
" transform="scale(0.015625)"/>
      <path id="DejaVuSans-Bold-69" d="M 538 3500
L 1656 3500
L 1656 0
L 538 0
L 538 3500
z
M 538 4863
L 1656 4863
L 1656 3950
L 538 3950
L 538 4863
z
" transform="scale(0.015625)"/>
     </defs>
     <use xlink:href="#DejaVuSans-Bold-50"/>
     <use xlink:href="#DejaVuSans-Bold-20" transform="translate(73.291016 0)"/>
     <use xlink:href="#DejaVuSans-Bold-74" transform="translate(108.105469 0)"/>
     <use xlink:href="#DejaVuSans-Bold-6f" transform="translate(155.908203 0)"/>
     <use xlink:href="#DejaVuSans-Bold-6f" transform="translate(224.609375 0)"/>
     <use xlink:href="#DejaVuSans-Bold-20" transform="translate(293.310547 0)"/>
     <use xlink:href="#DejaVuSans-Bold-68" transform="translate(328.125 0)"/>
     <use xlink:href="#DejaVuSans-Bold-69" transform="translate(399.316406 0)"/>
     <use xlink:href="#DejaVuSans-Bold-67" transform="translate(433.59375 0)"/>
     <use xlink:href="#DejaVuSans-Bold-68" transform="translate(505.175781 0)"/>
    </g>
   </g>
  </g>
  <g id="text_33">
   <!-- Illustrative translation-P response shapes -->
   <g style="fill: #202124" transform="translate(248.790625 18.597656) scale(0.15 -0.15)">
    <defs>
     <path id="DejaVuSans-Bold-49" d="M 588 4666
L 1791 4666
L 1791 0
L 588 0
L 588 4666
z
" transform="scale(0.015625)"/>
     <path id="DejaVuSans-Bold-76" d="M 97 3500
L 1216 3500
L 2088 1081
L 2956 3500
L 4078 3500
L 2700 0
L 1472 0
L 97 3500
z
" transform="scale(0.015625)"/>
     <path id="DejaVuSans-Bold-2d" d="M 347 2297
L 2309 2297
L 2309 1388
L 347 1388
L 347 2297
z
" transform="scale(0.015625)"/>
     <path id="DejaVuSans-Bold-70" d="M 1656 506
L 1656 -1331
L 538 -1331
L 538 3500
L 1656 3500
L 1656 2988
Q 1888 3294 2169 3439
Q 2450 3584 2816 3584
Q 3463 3584 3878 3070
Q 4294 2556 4294 1747
Q 4294 938 3878 423
Q 3463 -91 2816 -91
Q 2450 -91 2169 54
Q 1888 200 1656 506
z
M 2400 2772
Q 2041 2772 1848 2508
Q 1656 2244 1656 1747
Q 1656 1250 1848 986
Q 2041 722 2400 722
Q 2759 722 2948 984
Q 3138 1247 3138 1747
Q 3138 2247 2948 2509
Q 2759 2772 2400 2772
z
" transform="scale(0.015625)"/>
    </defs>
    <use xlink:href="#DejaVuSans-Bold-49"/>
    <use xlink:href="#DejaVuSans-Bold-6c" transform="translate(37.207031 0)"/>
    <use xlink:href="#DejaVuSans-Bold-6c" transform="translate(71.484375 0)"/>
    <use xlink:href="#DejaVuSans-Bold-75" transform="translate(105.761719 0)"/>
    <use xlink:href="#DejaVuSans-Bold-73" transform="translate(176.953125 0)"/>
    <use xlink:href="#DejaVuSans-Bold-74" transform="translate(236.474609 0)"/>
    <use xlink:href="#DejaVuSans-Bold-72" transform="translate(284.277344 0)"/>
    <use xlink:href="#DejaVuSans-Bold-61" transform="translate(333.59375 0)"/>
    <use xlink:href="#DejaVuSans-Bold-74" transform="translate(401.074219 0)"/>
    <use xlink:href="#DejaVuSans-Bold-69" transform="translate(448.876953 0)"/>
    <use xlink:href="#DejaVuSans-Bold-76" transform="translate(483.154297 0)"/>
    <use xlink:href="#DejaVuSans-Bold-65" transform="translate(548.339844 0)"/>
    <use xlink:href="#DejaVuSans-Bold-20" transform="translate(616.162109 0)"/>
    <use xlink:href="#DejaVuSans-Bold-74" transform="translate(650.976562 0)"/>
    <use xlink:href="#DejaVuSans-Bold-72" transform="translate(698.779297 0)"/>
    <use xlink:href="#DejaVuSans-Bold-61" transform="translate(748.095703 0)"/>
    <use xlink:href="#DejaVuSans-Bold-6e" transform="translate(815.576172 0)"/>
    <use xlink:href="#DejaVuSans-Bold-73" transform="translate(886.767578 0)"/>
    <use xlink:href="#DejaVuSans-Bold-6c" transform="translate(946.289062 0)"/>
    <use xlink:href="#DejaVuSans-Bold-61" transform="translate(980.566406 0)"/>
    <use xlink:href="#DejaVuSans-Bold-74" transform="translate(1048.046875 0)"/>
    <use xlink:href="#DejaVuSans-Bold-69" transform="translate(1095.849609 0)"/>
    <use xlink:href="#DejaVuSans-Bold-6f" transform="translate(1130.126953 0)"/>
    <use xlink:href="#DejaVuSans-Bold-6e" transform="translate(1198.828125 0)"/>
    <use xlink:href="#DejaVuSans-Bold-2d" transform="translate(1270.019531 0)"/>
    <use xlink:href="#DejaVuSans-Bold-50" transform="translate(1311.523438 0)"/>
    <use xlink:href="#DejaVuSans-Bold-20" transform="translate(1384.814453 0)"/>
    <use xlink:href="#DejaVuSans-Bold-72" transform="translate(1419.628906 0)"/>
    <use xlink:href="#DejaVuSans-Bold-65" transform="translate(1468.945312 0)"/>
    <use xlink:href="#DejaVuSans-Bold-73" transform="translate(1536.767578 0)"/>
    <use xlink:href="#DejaVuSans-Bold-70" transform="translate(1596.289062 0)"/>
    <use xlink:href="#DejaVuSans-Bold-6f" transform="translate(1667.871094 0)"/>
    <use xlink:href="#DejaVuSans-Bold-6e" transform="translate(1736.572266 0)"/>
    <use xlink:href="#DejaVuSans-Bold-73" transform="translate(1807.763672 0)"/>
    <use xlink:href="#DejaVuSans-Bold-65" transform="translate(1867.285156 0)"/>
    <use xlink:href="#DejaVuSans-Bold-20" transform="translate(1935.107422 0)"/>
    <use xlink:href="#DejaVuSans-Bold-73" transform="translate(1969.921875 0)"/>
    <use xlink:href="#DejaVuSans-Bold-68" transform="translate(2029.443359 0)"/>
    <use xlink:href="#DejaVuSans-Bold-61" transform="translate(2100.634766 0)"/>
    <use xlink:href="#DejaVuSans-Bold-70" transform="translate(2168.115234 0)"/>
    <use xlink:href="#DejaVuSans-Bold-65" transform="translate(2239.697266 0)"/>
    <use xlink:href="#DejaVuSans-Bold-73" transform="translate(2307.519531 0)"/>
   </g>
  </g>
 </g>
 <defs>
  <clipPath id="pb19dd37c5c">
   <rect x="34.240625" y="69.02" width="259.858333" height="203.58"/>
  </clipPath>
  <clipPath id="p41af4c03c1">
   <rect x="310.098958" y="69.02" width="259.858333" height="203.58"/>
  </clipPath>
  <clipPath id="p0a1e00ad3f">
   <rect x="585.957292" y="69.02" width="259.858333" height="203.58"/>
  </clipPath>
 </defs>
</svg>
